# xmcd
#
# Track frame offsets: 
#        150
#        20251
#        37345
#        59972
#        81519
#        98175
#        118227
#        139124
#        159183
#        176485
#        197370
#
# Disc length: 2866 seconds
#
# Revision: 1
# Processed by: cddbd v1.5.1PL0 Copyright (c) Steve Scherf et al.
# Submitted via: ExactAudioCopy v0.95a5
#
DISCID=990b300b
DTITLE=Grady Nichols - Sophistication
DYEAR=2003
DGENRE=Jazz
TTITLE0=Tuesday Morning
TTITLE1=Livin' the Life
TTITLE2=Sneak
TTITLE3=End of the Night
TTITLE4=All Right
TTITLE5=Dinner and a Movie
TTITLE6=Within the Blue
TTITLE7=Behind the Scenes
TTITLE8=Circle of Friends
TTITLE9=Alone with You
TTITLE10=Quiet Times
EXTD=
EXTT0=
EXTT1=
EXTT2=
EXTT3=
EXTT4=
EXTT5=
EXTT6=
EXTT7=
EXTT8=
EXTT9=
EXTT10=
PLAYORDER=
